<svg width="20" height="20" viewBox="0 0 20 20" fill="none" xmlns="http://www.w3.org/2000/svg">
    <path fill-rule="evenodd" clip-rule="evenodd" d="M10 19C14.9706 19 19 14.9706 19 10C19 5.02944 14.9706 1 10 1C5.02944 1 1 5.02944 1 10C1 14.9706 5.02944 19 10 19ZM10 20C15.5228 20 20 15.5228 20 10C20 4.47715 15.5228 0 10 0C4.47715 0 0 4.47715 0 10C0 15.5228 4.47715 20 10 20ZM5.35355 14.5202C5.15829 14.325 5.15829 14.0084 5.35355 13.8131L9.29292 9.87376L5.47982 6.06066C5.28456 5.8654 5.28456 5.54882 5.47982 5.35355C5.67508 5.15829 5.99167 5.15829 6.18693 5.35355L10 9.16665L13.8388 5.32784C14.0341 5.13258 14.3507 5.13258 14.5459 5.32784C14.7412 5.5231 14.7412 5.83968 14.5459 6.03494L10.7071 9.87376L14.6722 13.8388C14.8675 14.0341 14.8675 14.3507 14.6722 14.5459C14.4769 14.7412 14.1604 14.7412 13.9651 14.5459L10 10.5809L6.06066 14.5202C5.8654 14.7155 5.54882 14.7155 5.35355 14.5202Z" fill="#000"></path>
</svg>